<svg width="234" height="65" viewBox="0 0 234 65" fill="none" xmlns="http://www.w3.org/2000/svg">
<g clip-path="url(#clip0_3_10)">
<rect width="234" height="65" fill="#0F435F"/>
<path d="M14.4765 36.432H16.0285V48H14.4765V36.432ZM29.3675 48.368L20.4235 39.296L20.8715 39.408L20.9035 48H19.3515V36.08H19.4315L28.2795 45.184L27.9115 45.104L27.8795 36.432H29.4155V48.368H29.3675ZM32.7421 48V36.064H32.7581L38.8221 44.672L38.1661 44.544L44.2141 36.064H44.2461V48H42.7101V39.584L42.8061 40.368L38.4381 46.544H38.4061L33.9741 40.368L34.2461 39.648V48H32.7421ZM46.8503 42.224C46.8503 41.424 46.9996 40.672 47.2983 39.968C47.6076 39.2533 48.0343 38.624 48.5783 38.08C49.1223 37.5253 49.7463 37.0933 50.4503 36.784C51.1649 36.464 51.9329 36.304 52.7543 36.304C53.5649 36.304 54.3223 36.464 55.0263 36.784C55.7409 37.0933 56.3703 37.5253 56.9143 38.08C57.4689 38.624 57.9009 39.2533 58.2103 39.968C58.5196 40.672 58.6743 41.424 58.6743 42.224C58.6743 43.0453 58.5196 43.8133 58.2103 44.528C57.9009 45.2427 57.4689 45.872 56.9143 46.416C56.3703 46.9493 55.7409 47.3707 55.0263 47.68C54.3223 47.9787 53.5649 48.128 52.7543 48.128C51.9329 48.128 51.1649 47.9787 50.4503 47.68C49.7463 47.3813 49.1223 46.9653 48.5783 46.432C48.0343 45.8987 47.6076 45.2747 47.2983 44.56C46.9996 43.8453 46.8503 43.0667 46.8503 42.224ZM48.4503 42.24C48.4503 42.848 48.5623 43.4187 48.7863 43.952C49.0103 44.4747 49.3196 44.9387 49.7143 45.344C50.1089 45.7493 50.5676 46.0693 51.0903 46.304C51.6129 46.528 52.1783 46.64 52.7863 46.64C53.3836 46.64 53.9436 46.528 54.4663 46.304C54.9889 46.0693 55.4423 45.7493 55.8263 45.344C56.2103 44.9387 56.5143 44.4747 56.7383 43.952C56.9623 43.4187 57.0743 42.8427 57.0743 42.224C57.0743 41.616 56.9623 41.0453 56.7383 40.512C56.5143 39.968 56.2049 39.4933 55.8103 39.088C55.4156 38.6827 54.9569 38.368 54.4343 38.144C53.9116 37.9093 53.3516 37.792 52.7543 37.792C52.1463 37.792 51.5809 37.9093 51.0583 38.144C50.5356 38.3787 50.0769 38.6987 49.6823 39.104C49.2876 39.5093 48.9836 39.984 48.7703 40.528C48.5569 41.0613 48.4503 41.632 48.4503 42.24ZM64.265 36.432C65.4277 36.432 66.3397 36.672 67.001 37.152C67.673 37.6213 68.009 38.3573 68.009 39.36C68.009 39.968 67.8703 40.496 67.593 40.944C67.3157 41.392 66.9263 41.744 66.425 42C65.9343 42.256 65.353 42.4 64.681 42.432L64.457 41.632C65.2357 41.6533 65.9343 41.792 66.553 42.048C67.1717 42.304 67.6623 42.6613 68.025 43.12C68.3877 43.5787 68.569 44.1227 68.569 44.752C68.569 45.328 68.4623 45.824 68.249 46.24C68.0357 46.6453 67.7477 46.9813 67.385 47.248C67.0223 47.504 66.6117 47.696 66.153 47.824C65.6943 47.9413 65.2197 48 64.729 48H61.289V36.432H64.265ZM64.585 41.504C65.225 41.504 65.689 41.328 65.977 40.976C66.265 40.6133 66.409 40.176 66.409 39.664C66.409 39.056 66.2223 38.6133 65.849 38.336C65.4757 38.0587 64.9743 37.92 64.345 37.92H62.841V41.504H64.585ZM64.649 46.56C65.0757 46.56 65.465 46.496 65.817 46.368C66.1797 46.24 66.4623 46.0427 66.665 45.776C66.8783 45.5093 66.985 45.1733 66.985 44.768C66.985 44.32 66.8623 43.968 66.617 43.712C66.3823 43.456 66.0783 43.2747 65.705 43.168C65.3317 43.0507 64.9477 42.992 64.553 42.992H62.841V46.56H64.649ZM71.1796 36.432H72.7316V48H71.1796V36.432ZM76.0546 36.432H77.6066V46.512H83.4786V48H76.0546V36.432ZM86.0078 36.432H87.5598V48H86.0078V36.432ZM89.7308 48L94.7868 35.952H94.8828L99.9228 48H98.1468L94.3708 38.384L95.4748 37.664L91.2508 48H89.7308ZM92.6908 43.616H96.9948L97.5068 44.96H92.2428L92.6908 43.616ZM105.174 36.432C105.76 36.432 106.299 36.512 106.79 36.672C107.291 36.8213 107.723 37.0507 108.086 37.36C108.459 37.6587 108.747 38.032 108.95 38.48C109.163 38.9173 109.27 39.4293 109.27 40.016C109.27 40.4747 109.2 40.9227 109.062 41.36C108.934 41.7973 108.715 42.1973 108.406 42.56C108.096 42.912 107.691 43.2 107.19 43.424C106.699 43.6373 106.091 43.744 105.366 43.744H103.654V48H102.102V36.432H105.174ZM105.334 42.256C105.792 42.256 106.171 42.1867 106.47 42.048C106.779 41.9093 107.019 41.7333 107.19 41.52C107.36 41.296 107.483 41.056 107.558 40.8C107.632 40.544 107.67 40.304 107.67 40.08C107.67 39.8453 107.627 39.6053 107.542 39.36C107.467 39.104 107.339 38.8693 107.158 38.656C106.987 38.4427 106.758 38.2667 106.47 38.128C106.192 37.9893 105.851 37.92 105.446 37.92H103.654V42.256H105.334ZM107.238 43.136L110.262 48H108.47L105.398 43.184L107.238 43.136ZM112.648 36.432H114.2V48H112.648V36.432ZM116.371 48L121.427 35.952H121.523L126.563 48H124.787L121.011 38.384L122.115 37.664L117.891 48H116.371ZM119.331 43.616H123.635L124.147 44.96H118.883L119.331 43.616ZM132.957 36.432H140.637V37.92H137.533V48H135.981V37.92H132.957V36.432ZM144.494 43.904C144.494 44.4267 144.616 44.896 144.862 45.312C145.118 45.7173 145.454 46.0373 145.87 46.272C146.286 46.5067 146.755 46.624 147.278 46.624C147.822 46.624 148.307 46.5067 148.734 46.272C149.16 46.0373 149.496 45.7173 149.742 45.312C149.987 44.896 150.11 44.4267 150.11 43.904V36.432H151.63V43.952C151.63 44.7947 151.432 45.5307 151.038 46.16C150.654 46.7893 150.131 47.2747 149.47 47.616C148.819 47.9573 148.088 48.128 147.278 48.128C146.467 48.128 145.736 47.9573 145.086 47.616C144.435 47.2747 143.918 46.7893 143.534 46.16C143.15 45.5307 142.958 44.7947 142.958 43.952V36.432H144.494V43.904ZM169.019 36.432V48H167.483V42.928H161.419V48H159.867V36.432H161.419V41.456H167.483V36.432H169.019ZM171.632 42.224C171.632 41.424 171.781 40.672 172.08 39.968C172.389 39.2533 172.816 38.624 173.36 38.08C173.904 37.5253 174.528 37.0933 175.232 36.784C175.946 36.464 176.714 36.304 177.536 36.304C178.346 36.304 179.104 36.464 179.808 36.784C180.522 37.0933 181.152 37.5253 181.696 38.08C182.25 38.624 182.682 39.2533 182.992 39.968C183.301 40.672 183.456 41.424 183.456 42.224C183.456 43.0453 183.301 43.8133 182.992 44.528C182.682 45.2427 182.25 45.872 181.696 46.416C181.152 46.9493 180.522 47.3707 179.808 47.68C179.104 47.9787 178.346 48.128 177.536 48.128C176.714 48.128 175.946 47.9787 175.232 47.68C174.528 47.3813 173.904 46.9653 173.36 46.432C172.816 45.8987 172.389 45.2747 172.08 44.56C171.781 43.8453 171.632 43.0667 171.632 42.224ZM173.232 42.24C173.232 42.848 173.344 43.4187 173.568 43.952C173.792 44.4747 174.101 44.9387 174.496 45.344C174.89 45.7493 175.349 46.0693 175.872 46.304C176.394 46.528 176.96 46.64 177.568 46.64C178.165 46.64 178.725 46.528 179.248 46.304C179.77 46.0693 180.224 45.7493 180.608 45.344C180.992 44.9387 181.296 44.4747 181.52 43.952C181.744 43.4187 181.856 42.8427 181.856 42.224C181.856 41.616 181.744 41.0453 181.52 40.512C181.296 39.968 180.986 39.4933 180.592 39.088C180.197 38.6827 179.738 38.368 179.216 38.144C178.693 37.9093 178.133 37.792 177.536 37.792C176.928 37.792 176.362 37.9093 175.84 38.144C175.317 38.3787 174.858 38.6987 174.464 39.104C174.069 39.5093 173.765 39.984 173.552 40.528C173.338 41.0613 173.232 41.632 173.232 42.24ZM195.126 47.008C194.966 47.1467 194.742 47.2853 194.454 47.424C194.166 47.552 193.846 47.6693 193.494 47.776C193.153 47.8827 192.796 47.968 192.422 48.032C192.06 48.096 191.718 48.128 191.398 48.128C190.47 48.128 189.633 47.984 188.886 47.696C188.15 47.408 187.516 47.008 186.982 46.496C186.46 45.984 186.054 45.3813 185.766 44.688C185.489 43.9947 185.35 43.2427 185.35 42.432C185.35 41.472 185.505 40.6133 185.814 39.856C186.134 39.088 186.566 38.4427 187.11 37.92C187.665 37.3867 188.3 36.9867 189.014 36.72C189.729 36.4427 190.486 36.304 191.286 36.304C191.958 36.304 192.582 36.384 193.158 36.544C193.734 36.704 194.241 36.9067 194.678 37.152L194.15 38.576C193.937 38.448 193.67 38.3307 193.35 38.224C193.041 38.1173 192.721 38.032 192.39 37.968C192.06 37.8933 191.75 37.856 191.462 37.856C190.78 37.856 190.161 37.9627 189.606 38.176C189.052 38.3787 188.577 38.6773 188.182 39.072C187.788 39.456 187.484 39.9253 187.27 40.48C187.057 41.024 186.95 41.6373 186.95 42.32C186.95 42.9493 187.057 43.5253 187.27 44.048C187.484 44.5707 187.788 45.024 188.182 45.408C188.577 45.7813 189.046 46.0747 189.59 46.288C190.145 46.4907 190.753 46.592 191.414 46.592C191.809 46.592 192.198 46.5547 192.582 46.48C192.966 46.3947 193.297 46.2773 193.574 46.128V43.824H191.27V42.336H195.126V47.008ZM196.934 48L201.99 35.952H202.086L207.126 48H205.35L201.574 38.384L202.678 37.664L198.454 48H196.934ZM199.894 43.616H204.198L204.71 44.96H199.446L199.894 43.616ZM212.377 36.432C212.963 36.432 213.502 36.512 213.993 36.672C214.494 36.8213 214.926 37.0507 215.289 37.36C215.662 37.6587 215.95 38.032 216.153 38.48C216.366 38.9173 216.473 39.4293 216.473 40.016C216.473 40.4747 216.403 40.9227 216.265 41.36C216.137 41.7973 215.918 42.1973 215.609 42.56C215.299 42.912 214.894 43.2 214.393 43.424C213.902 43.6373 213.294 43.744 212.569 43.744H210.857V48H209.305V36.432H212.377ZM212.537 42.256C212.995 42.256 213.374 42.1867 213.673 42.048C213.982 41.9093 214.222 41.7333 214.393 41.52C214.563 41.296 214.686 41.056 214.761 40.8C214.835 40.544 214.873 40.304 214.873 40.08C214.873 39.8453 214.83 39.6053 214.745 39.36C214.67 39.104 214.542 38.8693 214.361 38.656C214.19 38.4427 213.961 38.2667 213.673 38.128C213.395 37.9893 213.054 37.92 212.649 37.92H210.857V42.256H212.537ZM214.441 43.136L217.465 48H215.673L212.601 43.184L214.441 43.136Z" fill="#FFFFFA"/>
<path d="M100.608 28L111 10L121.392 28H100.608Z" stroke="#FFFFFA"/>
<path d="M111.608 28L122 10L132.392 28H111.608Z" stroke="#FFFFFA"/>
<line x1="15" y1="27.5" x2="94" y2="27.5" stroke="#FFFFFA"/>
<line x1="15" y1="24.5" x2="94" y2="24.5" stroke="#FFFFFA"/>
<line x1="141" y1="24.5" x2="216" y2="24.5" stroke="#FFFFFA"/>
<line x1="141" y1="27.5" x2="216" y2="27.5" stroke="#FFFFFA"/>
</g>
<defs>
<clipPath id="clip0_3_10">
<rect width="234" height="65" fill="white"/>
</clipPath>
</defs>
</svg>
